# xmcd CD database file
# Copyright (C) 1996 Ti Kan
#
# Track frame offsets:
#  150
#  18445
#  28545
#  42855
#  54260
#  64075
#  76952
#  99917
#  119017
#  133637
#  149360
#  161957
#  178607
#  193300
#  207187
#  224192
#  238609
#  252615
#  259522
#
# Disc length: 3556 seconds
#
# Revision: 1
# Processed by: cddbd v1.4b41PL1 Copyright (c) Steve Scherf et al.
# Submitted via: CDWizzard Release:4.14
#
DISCID=1d0de213
DTITLE=Forgotten Rebels - Tomorrow Belongs To Us
DYEAR=1900
DGENRE=
TTITLE0=National Unity
TTITLE1=3rd Homosexual Murder
TTITLE2=Reich 'N Roll
TTITLE3=Angry
TTITLE4=You're A Rebel Too
TTITLE5=In Love With The System
TTITLE6=New Wave Girl
TTITLE7=National Unity
TTITLE8=Reich 'N Roll
TTITLE9=Angry
TTITLE10=Surfin' On Heroin
TTITLE11=Own Little World
TTITLE12=This Ain't Hollywood
TTITLE13=Poppies
TTITLE14=Bomb The Boats
TTITLE15=White Trash Of America
TTITLE16=I Think Of Her
TTITLE17=Fuck Me Dead
TTITLE18=Elvis Is Dead
EXTD=Reissue Of The Forgotten Rebels first EP, first *very* limited editi
EXTD=on tape and other various tracks.
EXTT0=
EXTT1=
EXTT2=
EXTT3=
EXTT4=
EXTT5=
EXTT6=
EXTT7=
EXTT8=
EXTT9=
EXTT10=
EXTT11=
EXTT12=
EXTT13=
EXTT14=
EXTT15=
EXTT16=
EXTT17=
EXTT18=
PLAYORDER=
